<svg xmlns="http://www.w3.org/2000/svg" xmlns:xlink="http://www.w3.org/1999/xlink" enable-background="new 0 0 1192.1 994.6" viewBox="0 0 1192.1 994.6"><g><linearGradient id="a" x1="105.449" x2="1085.272" y1="987.819" y2="987.819" gradientUnits="userSpaceOnUse"><stop offset="0" stop-color="#c5d1c3" stop-opacity="0"/><stop offset=".309" stop-color="#c5d1c3"/><stop offset=".374" stop-color="#c5d1c3"/><stop offset=".75" stop-color="#c5d1c3"/><stop offset="1" stop-color="#c5d1c3" stop-opacity=".014"/></linearGradient><path fill="url(#a)" d="M112 981h966.7c3.6 0 6.6 2.9 6.6 6.6v.5c0 3.6-2.9 6.6-6.6 6.6H112c-3.6 0-6.6-2.9-6.6-6.6v-.5c0-3.7 3-6.6 6.6-6.6z"/></g><g><g><radialGradient id="b" cx="587.151" cy="489.191" r="558.335" gradientTransform="matrix(.8191 .5736 -.3774 .539 290.832 -111.262)" gradientUnits="userSpaceOnUse"><stop offset=".677" stop-color="#9b8084"/><stop offset=".765" stop-color="#8f766f"/><stop offset=".944" stop-color="#6f5d3a"/><stop offset="1" stop-color="#645528"/></radialGradient><path fill="url(#b)" d="M737.1 703.9l-100.7-4.8c-78.2-3.7-151.4-39.6-202.2-99.2L284.1 423.8c-23.8-27.9-62.9-36.9-96.5-22.3-49.1 21.3-65.6 82.8-33.7 125.8l97.9 132.4c70.6 95.5 173.4 162.2 289.3 187.8l182.3 40.3"/><radialGradient id="c" cx="396.217" cy="520.21" r="389.226" gradientTransform="matrix(.7173 .6968 -.5246 .54 384.887 -36.787)" gradientUnits="userSpaceOnUse"><stop offset=".677" stop-color="#9b8084"/><stop offset=".765" stop-color="#8f766f"/><stop offset=".944" stop-color="#6f5d3a"/><stop offset="1" stop-color="#645528"/></radialGradient><path fill="url(#c)" d="M254.9 804.8L47.5 524.3c-31.8-43-15.3-104.5 33.7-125.8 33.6-14.6 72.8-5.5 96.5 22.3l153.9 180.6c64 75.1 155.1 121.8 253.4 129.9l56.1 4.7"/></g></g><linearGradient id="d" x1="530.09" x2="530.09" y1="-88.854" y2="840.665" gradientUnits="userSpaceOnUse"><stop offset=".5" stop-color="#005bbb"/><stop offset=".5" stop-color="#1565ac"/><stop offset=".5" stop-color="#4b7f84"/><stop offset=".5" stop-color="#a1a845"/><stop offset=".5" stop-color="#ffd500"/></linearGradient><path fill="url(#d)" d="M524.8 105.3C573.2 43.9 647.3 3.3 731.6.2c1.6-.1 3.2-.1 4.8-.1C926-3.8 1051.7 195.9 968.9 366.6c-67.6 139.4-164.5 262.5-284.2 361L549.4 839 406.9 736.9C280.9 646.6 176 530.2 99.2 395.7 5.2 230.9 117.3 23.3 306.8 14.4c1.6-.1 3.2-.1 4.8-.2 84.2-2.5 160.8 33.1 213.2 91.1z"/><radialGradient id="e" cx="872.954" cy="416.86" r="615.148" gradientTransform="matrix(-.5481 .8364 -.6474 -.4242 1621.278 -136.459)" gradientUnits="userSpaceOnUse"><stop offset=".677" stop-color="#005bbb" stop-opacity="0"/><stop offset=".724" stop-color="#0051a6" stop-opacity=".073"/><stop offset=".821" stop-color="#003770" stop-opacity=".223"/><stop offset=".959" stop-color="#000d1b" stop-opacity=".436"/><stop offset="1" stop-opacity=".5"/></radialGradient><path fill="url(#e)" d="M524.8 105.3C573.2 43.9 647.3 3.3 731.6.2c1.6-.1 3.2-.1 4.8-.1C926-3.8 1051.7 195.9 968.9 366.6c-67.6 139.4-164.5 262.5-284.2 361L549.4 839 406.9 736.9C280.9 646.6 176 530.2 99.2 395.7 5.2 230.9 117.3 23.3 306.8 14.4c1.6-.1 3.2-.1 4.8-.2 84.2-2.5 160.8 33.1 213.2 91.1z"/><defs><filter id="f" width="530.4" height="819" x="65.3" y="14.1" filterUnits="userSpaceOnUse"><feColorMatrix values="1 0 0 0 0 0 1 0 0 0 0 0 1 0 0 0 0 0 1 0"/></filter></defs><mask id="g" width="530.4" height="819" x="65.3" y="14.1" maskUnits="userSpaceOnUse"><g filter="url(#f)"><path fill="#FFF" d="M23.7 375.9h696.1v450.7H23.7z"/></g></mask><radialGradient id="h" cx="553.205" cy="394.138" r="564.975" gradientTransform="matrix(.6555 .7552 -.6146 .5336 432.81 -233.915)" gradientUnits="userSpaceOnUse"><stop offset=".676" stop-color="#ffd500"/><stop offset="1" stop-color="#ffd500" stop-opacity="0"/></radialGradient><path fill="url(#h)" d="M527.6 108.4c-.9-1-1.8-2.1-2.7-3.1-52.4-58.1-129-93.6-213.3-91.1-1.6 0-3.2.1-4.8.2C117.3 23.3 5.2 230.9 99.2 395.7c76.8 134.6 181.7 251 307.7 341.2l134.3 96.2h15.4l39.2-32.3V282c-2-66.7-27.5-127.1-68.2-173.6z" mask="url(#g)"/><defs><filter id="i" width="530.4" height="819" x="65.3" y="14.1" filterUnits="userSpaceOnUse"><feColorMatrix values="1 0 0 0 0 0 1 0 0 0 0 0 1 0 0 0 0 0 1 0"/></filter></defs><mask id="j" width="530.4" height="819" x="65.3" y="14.1" maskUnits="userSpaceOnUse"><g filter="url(#i)"><path fill="#FFF" d="M-42.5-1.2H644v377.1H-42.5z"/></g></mask><radialGradient id="k" cx="553.205" cy="394.138" r="564.975" gradientTransform="matrix(.6555 .7552 -.6146 .5336 432.81 -233.915)" gradientUnits="userSpaceOnUse"><stop offset=".675" stop-color="#005bbb"/><stop offset="1" stop-color="#005bbb" stop-opacity="0"/></radialGradient><path fill="url(#k)" d="M527.6 108.4c-.9-1-1.8-2.1-2.7-3.1-52.4-58.1-129-93.6-213.3-91.1-1.6 0-3.2.1-4.8.2C117.3 23.3 5.2 230.9 99.2 395.7c76.8 134.6 181.7 251 307.7 341.2l134.3 96.2h15.4l39.2-32.3V282c-2-66.7-27.5-127.1-68.2-173.6z" mask="url(#j)"/><radialGradient id="l" cx="713.081" cy="492.803" r="351.115" gradientTransform="matrix(-.9955 -.09439 .03909 -.4123 1403.715 763.288)" gradientUnits="userSpaceOnUse"><stop offset=".677" stop-color="#ffa000" stop-opacity=".5"/><stop offset="1" stop-color="#ffa000" stop-opacity="0"/></radialGradient><path fill="url(#l)" d="M524.8 105.3C573.2 43.9 647.3 3.3 731.6.2c1.6-.1 3.2-.1 4.8-.1C926-3.8 1051.7 195.9 968.9 366.6c-67.6 139.4-164.5 262.5-284.2 361L549.4 839 406.9 736.9C280.9 646.6 176 530.2 99.2 395.7 5.2 230.9 117.3 23.3 306.8 14.4c1.6-.1 3.2-.1 4.8-.2 84.2-2.5 160.8 33.1 213.2 91.1z"/><g><g><radialGradient id="m" cx="626.479" cy="455.291" r="688.805" gradientTransform="matrix(.961 .2764 -.1994 .6931 115.171 -33.451)" gradientUnits="userSpaceOnUse"><stop offset=".677" stop-color="#9b8084"/><stop offset=".765" stop-color="#8f766f"/><stop offset=".944" stop-color="#6f5d3a"/><stop offset="1" stop-color="#645528"/></radialGradient><path fill="url(#m)" d="M665 738.6l-138.6-11.9c-109.5-9.4-211.3-60-284.8-141.7l-88.5-98.3C130 461 93.4 452.1 61 464.2c-56.2 21-78.5 88.5-45.9 138.9L29.9 626c95.6 147.6 235.5 260.9 399.7 323.8 77.7 29.7 160.1 45 243.2 45h224.5c167.9 0 301.9-140.1 294.4-307.8-6.1-136.4-98.4-253.8-229.5-291.8-138.9-40.3-283.4-57.5-427.8-51l-114.1 5.1c-36.6 1.6-65.5 31.8-65.5 68.5 0 82.2 66.6 148.7 148.7 148.7h10.9c72.8 0 145.4 4.7 217.5 14-32.7 51.1-56 107.7-68.9 167.1l-1.4 6.4"/><radialGradient id="n" cx="809.67" cy="412.047" r="452.442" gradientTransform="matrix(.961 .2764 -.1754 .61 103.837 -63.108)" gradientUnits="userSpaceOnUse"><stop offset=".677" stop-color="#9b8084"/><stop offset=".765" stop-color="#8f766f"/><stop offset=".944" stop-color="#6f5d3a"/><stop offset="1" stop-color="#645528"/></radialGradient><path fill="url(#n)" d="M732 580.3c64.1 8.3 127.8 20.2 190.7 35.8L956 610l57-195.4c-16.1-7.8-33-14.4-50.7-19.5-138.9-40.3-283.4-57.5-427.8-51l-114.1 5.1c-36.6 1.6-65.5 31.8-65.5 68.5 0 82.2 66.6 148.7 148.7 148.7h10.9c72.8-.1 145.5 4.6 217.5 13.9z"/><radialGradient id="o" cx="479.864" cy="408.32" r="91.495" gradientUnits="userSpaceOnUse"><stop offset=".426" stop-color="#e4ebe4"/><stop offset="1" stop-color="#d5e0d5" stop-opacity="0"/></radialGradient><path fill="url(#o)" d="M468.2 476.3c34.2 0 61.9-29.9 61.9-66.8 0-29.5-17.8-54.6-42.4-63.4l-43.8 2c-22.1 10.2-37.5 33.9-37.5 61.5 0 36.8 27.7 66.7 61.8 66.7z" opacity=".5"/><radialGradient id="p" cx="479.864" cy="408.32" r="74.531" gradientUnits="userSpaceOnUse"><stop offset=".752" stop-color="#d5e0d5" stop-opacity="0"/><stop offset="1" stop-color="#e4ebe4"/></radialGradient><path fill="url(#p)" d="M468.2 476.3c34.2 0 61.9-29.9 61.9-66.8 0-29.5-17.8-54.6-42.4-63.4l-43.8 2c-22.1 10.2-37.5 33.9-37.5 61.5 0 36.8 27.7 66.7 61.8 66.7z" opacity=".5"/><radialGradient id="q" cx="530.572" cy="406.562" r="50.79" gradientTransform="matrix(1 0 0 1.3417 0 -138.903)" gradientUnits="userSpaceOnUse"><stop offset=".752" stop-color="#e4ebe4"/><stop offset="1" stop-color="#d5e0d5" stop-opacity="0"/></radialGradient><path fill="url(#q)" d="M468.2 476.3c34.2 0 61.9-29.9 61.9-66.8 0-29.5-17.8-54.6-42.4-63.4l-43.8 2c-22.1 10.2-37.5 33.9-37.5 61.5 0 36.8 27.7 66.7 61.8 66.7z" opacity=".5"/><radialGradient id="r" cx="454.79" cy="461.853" r="59.663" gradientTransform="matrix(1 0 0 1.3417 0 -157.794)" gradientUnits="userSpaceOnUse"><stop offset=".426" stop-color="#e4ebe4"/><stop offset="1" stop-color="#d5e0d5" stop-opacity="0"/></radialGradient><path fill="url(#r)" d="M468.2 471.5c-33.5 0-60.8-28.8-61.8-64.7v2.7c0 36.9 27.7 66.8 61.9 66.8s61.9-29.9 61.9-66.8v-2.7c-1.2 36-28.5 64.7-62 64.7z" opacity=".5"/><radialGradient id="s" cx="842.465" cy="737.672" r="254.773" gradientTransform="matrix(.9995 -.03005 .02307 .7674 -16.639 196.88)" gradientUnits="userSpaceOnUse"><stop offset=".677" stop-color="#9b8084"/><stop offset=".765" stop-color="#8f766f"/><stop offset=".944" stop-color="#6f5d3a"/><stop offset="1" stop-color="#645528"/></radialGradient><path fill="url(#s)" d="M922.7 616.1c-62.9-15.6-126.6-27.5-190.7-35.8l-11.3 18.6c-13 22.4-24.3 45.7-33.7 69.8 74-2 235.7-52.6 235.7-52.6z"/><g><radialGradient id="t" cx="505.012" cy="820.647" r="219.703" gradientTransform="matrix(.961 .2764 -.2122 .7379 193.829 75.537)" gradientUnits="userSpaceOnUse"><stop offset=".706" stop-color="#645528" stop-opacity="0"/><stop offset="1" stop-color="#645528"/></radialGradient><path fill="url(#t)" d="M665 738.6l-138.6-11.9c-16.2-1.4-32.3-3.7-48.1-6.9V839h173.4l3.5-38.6c1.6-17.8 4.3-35.5 8-52.9l-1.4 6.4 3.2-15.3z"/><radialGradient id="u" cx="664.124" cy="741.38" r="5.905" gradientTransform="matrix(.961 .2764 -.2122 .7379 183.206 10.779)" gradientUnits="userSpaceOnUse"><stop offset=".677" stop-color="#9b8084"/><stop offset=".765" stop-color="#8f766f"/><stop offset=".944" stop-color="#6f5d3a"/><stop offset="1" stop-color="#645528"/></radialGradient><path fill="url(#u)" d="M663.1 747.4l1.8-7.8-1.8 7.8z"/></g></g></g><g><g><path fill="#FFF" d="M865.9 136.1h.1c-20.2 2-35.9 18.5-36.9 38.8l-1.8 38.5-1.8-38.5c-.9-20.3-16.7-36.8-36.9-38.8h.1c20.2-2 35.9-18.4 36.9-38.7l1.7-33.8 1.7 33.8c1 20.2 16.7 36.7 36.9 38.7z"/><path fill="#FFD500" d="M1039.2 61.8c-14.5 1.4-25.8 13.3-26.4 27.9l-1.3 27.7-1.3-27.7c-.7-14.6-12-26.5-26.5-27.9h.1c14.5-1.4 25.8-13.2 26.5-27.8l1.2-24.3 1.2 24.3c.7 14.6 12 26.4 26.5 27.8z"/></g></g></svg>